# xmcd CD database file
#
# Track frame offsets:
#	150
#	9760
#	35305
#	56857
#	66112
#	81549
#	94370
#	115707
#	125109
#	143353
#	156938
#	172556
#	188927
#	205022
#	222648
#	242293
#	270571
#
# Disc length: 3741 seconds
#
# Revision: 0
# Processed by: cddbd v1.5.1PL0 Copyright (c) Steve Scherf et al.
# Submitted via: CDex 1.51
#
DISCID=e60e9b11
DTITLE=Jacek Glenc - Reflections
DYEAR=2005
DGENRE=Jazz
TTITLE0=The Prologue: Autograph
TTITLE1=Timelessness
TTITLE2=Love Colours
TTITLE3=The Setting Sun Waltz
TTITLE4=So Far, yet So Near
TTITLE5=A View with a Distant Horizon
TTITLE6=Autumnal Tale
TTITLE7=La Valse Brillante
TTITLE8=Jubilation
TTITLE9=Introspection
TTITLE10=The Mountain Song
TTITLE11=Reminiscence
TTITLE12=I Fix My Eye on Thine
TTITLE13=Summer Evening
TTITLE14=Love Colours
TTITLE15=Timelessness
TTITLE16=The Epilogue: Autograph
EXTD=YEAR: 2005
EXTT0=
EXTT1=
EXTT2=
EXTT3=
EXTT4=
EXTT5=
EXTT6=
EXTT7=
EXTT8=
EXTT9=
EXTT10=
EXTT11=
EXTT12=
EXTT13=
EXTT14=
EXTT15=
EXTT16=
PLAYORDER=
